<?xml version="1.0" encoding="UTF-8" standalone="no"?>
<!-- Created with Inkscape (http://www.inkscape.org/) -->

<svg
   width="145.89995mm"
   height="51.958504mm"
   viewBox="0 0 145.89995 51.958503"
   version="1.1"
   id="svg1"
   xml:space="preserve"
   xmlns="http://www.w3.org/2000/svg"
   xmlns:svg="http://www.w3.org/2000/svg"><defs
     id="defs1" /><g
     id="layer1"
     transform="translate(-31.926229,-122.43119)"><g
       transform="matrix(0.03527778,0,0,-0.03527778,27.868902,429.65509)"
       fill="#000000"
       stroke="none"
       id="g44"><g
         transform="translate(-47.116124,-26.835327)"
         fill="#000000"
         stroke="none"
         id="g16"><g
           id="g65"
           style="fill:#ffffff"><path
             d="m 304,8042.127 c -27.66137,0 -131.87305,3.9989 -131.87305,96.873 0,34.3243 175.15662,484.6087 190.04492,509.9395 46.99622,76.6246 191.14277,54.7195 233.54688,5.248 a 87.87401,87.87401 0 0 0 3.58008,-4.4629 c 15.66614,-20.8882 54.38581,-114.3318 93.45898,-213.5176 l -0.11133,0.2852 c 39.05639,-98.1417 79.45747,-201.0295 89.28321,-224.2539 a 87.87401,87.87401 0 0 0 0.77539,-1.8965 l 19,-48 A 87.87401,87.87401 0 0 0 720,8042.127 h -49 -48 a 87.87401,87.87401 0 0 0 -82.71875,58.2187 l -16.77148,46.7813 H 485 446.6582 c -8.30815,-25.2465 -17.51416,-54.0234 -45.71289,-77.7461 C 366.07908,8040.049 325.49999,8042.127 304,8042.127 Z m 58.17187,606.8125 c -0.34712,-0.566 -0.73973,-1.0854 -1.07617,-1.6622 l 1.38672,2.295 c -0.06,-0.096 -0.24418,-0.5199 -0.31055,-0.6328 z"
             id="path49"
             style="fill:#ffffff;stroke:none;stroke-width:141.732;stroke-linejoin:round;stroke-dasharray:none;stroke-opacity:1;paint-order:stroke fill markers" /><path
             d="m 3800,8442.127 c -84.065,0 -127.873,35.614 -127.873,121.873 0,27.4549 8.6593,99.9346 71.1796,121.7168 33.3197,12.7887 61.9778,11.4006 94.4532,3.9062 a 87.87401,87.87401 0 0 0 5.0351,-1.3203 c 68.5487,-20.1613 85.0781,-72.9544 85.0781,-124.3027 0,-86.259 -43.808,-121.873 -127.873,-121.873 z"
             id="path50"
             style="fill:#ffffff;stroke:none;stroke-width:141.732;stroke-linejoin:round;stroke-dasharray:none;stroke-opacity:1;paint-order:stroke fill markers" /><path
             d="m 1280.375,8034.127 c -14.7813,0 -34.0622,1.5398 -50.0508,5.248 -114.8587,25.3376 -128.1972,111.5407 -128.1972,252.625 0,11.0538 -0.011,20.9763 -0.047,29.9199 -0.033,8.0382 -0.087,15.1931 -0.1719,21.5879 0,0.1944 -0.01,0.3209 -0.01,0.5137 -30.5982,25.2539 -39.7714,67.5806 -39.7714,100.9785 0,34.7492 9.9479,79.1498 43.6093,103.9434 9.429,43.9316 37.1934,72.0261 79.1817,95.6445 l 36.707,20.834 a 87.87401,87.87401 0 0 0 131.1133,-71.5469 l 2.1367,-38.4766 c 46.3427,-19.9253 78.6348,-63.2968 70.4414,-126.1015 -5.6548,-52.2103 -32.5744,-80.5204 -67.4434,-94.3457 V 8314 c 0,-17.3813 0.3309,-31.275 0.8692,-43.459 45.1092,-12.9701 69.1308,-57.736 69.1308,-109.541 0,-65.0658 -35.9812,-108.1276 -97.9843,-121.541 -16.1664,-3.8611 -35.0131,-5.332 -49.5137,-5.332 z m 49.5137,5.332 c 0.4622,0.1104 0.9662,0.1766 1.4238,0.291 l -4.0781,-0.918 c 0.9088,0.1818 1.7564,0.4327 2.6543,0.627 z m 95.4277,389.8379 c 0.019,0.1745 0.056,0.3289 0.074,0.5039 l -0.539,-4.1621 c 0.1902,1.2363 0.3054,2.4365 0.4648,3.6582 z M 1230.3242,8039.375 c 0.3912,-0.086 0.7549,-0.1886 1.1485,-0.2734 l -1.5997,0.3613 c 0.1443,-0.034 0.3065,-0.054 0.4512,-0.088 z m 61.5352,229.1172 c 1.0857,0.3102 2.1374,0.5494 3.2109,0.834 l -0.3828,-0.076 z m 2.0761,299.3418 -0.1953,0.016 c 0,0 -0.8834,0.023 -0.7402,0.023 0.314,0 0.6218,-0.037 0.9355,-0.039 z"
             id="path51"
             style="fill:#ffffff;stroke:none;stroke-width:141.732;stroke-linejoin:round;stroke-dasharray:none;stroke-opacity:1;paint-order:stroke fill markers" /><path
             d="m 3382.6074,8035.4492 c -28.6193,-0.7018 -60.7986,5.1405 -87.8789,16.2188 a 87.87401,87.87401 0 0 0 -0.6601,0.2734 c -95.6592,40.0434 -101.9414,113.3052 -101.9414,259.0586 0,9.1443 -0.011,17.3294 -0.047,24.6992 -0.015,3.1704 -0.054,5.6338 -0.08,8.4649 -30.5676,25.2576 -39.873,67.4519 -39.873,100.8359 0,34.8472 10.0193,79.3884 43.9101,104.1406 9.982,43.4718 38.6155,71.0773 77.8379,93.8516 a 87.87401,87.87401 0 0 0 1.7773,1.0039 c 21.7937,11.9865 81.0916,44.868 132.1778,14.5527 40.2227,-24.0289 47.9995,-74.4209 49.5449,-107.6562 35.169,-18.8501 54.4532,-54.0727 58.1426,-100.293 5.4861,-59.2077 -15.277,-100.0545 -57.6446,-118.0449 V 8301 c 0,-10.4543 0.064,-19.7037 0.1875,-28.1934 43.2006,-17.8664 59.8125,-74.7508 59.8125,-110.8066 0,-70.0829 -34.9934,-111.0261 -105.0332,-123.4102 -10.2225,-1.91 -20.4104,-2.8997 -30.2324,-3.1406 z m 30.2324,3.1406 c 0.2014,0.038 0.4002,0.05 0.6016,0.088 l -1.5117,-0.2734 c 0.3131,0.054 0.5984,0.1304 0.9101,0.1855 z m 102.6778,412.0098 c -0.027,0.2954 -0.024,0.5689 -0.053,0.8652 l 0.17,-1.9726 c -0.028,0.3771 -0.087,0.7317 -0.1172,1.1074 z m -107.6875,207.9492 c -0.045,0.027 -0.087,0.057 -0.1328,0.084 l 0.5136,-0.2812 c -0.1257,0.075 -0.255,0.1226 -0.3808,0.1972 z m -0.1328,0.084 -5.3985,2.9649 c 1.8653,-0.9327 3.6563,-1.9286 5.3985,-2.9649 z"
             id="path52"
             style="fill:#ffffff;stroke:none;stroke-width:141.732;stroke-linejoin:round;stroke-dasharray:none;stroke-opacity:1;paint-order:stroke fill markers" /><path
             d="m 896.35156,8031.4121 c -6.93549,0.058 -13.94957,0.5391 -21.09179,1.502 -54.84308,7.3933 -134.66531,42.6059 -164.04493,106.2617 a 87.87401,87.87401 0 0 0 -0.21289,0.4609 c -25.54817,56.206 -23.06098,286.8288 -9.57422,343.9453 2.39413,10.1392 -4.241,49.7752 61.78321,71.7832 25.45175,8.484 52.45322,7.6136 71.05078,6.2852 l -3.00977,0.1641 27,-1 A 87.87401,87.87401 0 0 0 928.50391,8520.3457 87.87401,87.87401 0 0 0 1000,8557.873 h 40 40 A 87.87401,87.87401 0 0 0 1167.873,8470 V 8300 8130 A 87.87401,87.87401 0 0 0 1080,8042.127 h -35 c -18.5221,0 -39.7708,2.8859 -59.35156,10.6171 -24.3039,-11.0675 -54.9631,-21.6204 -89.29688,-21.332 z"
             id="path53"
             style="fill:#ffffff;stroke:none;stroke-width:141.732;stroke-linejoin:round;stroke-dasharray:none;stroke-opacity:1;paint-order:stroke fill markers" /><path
             d="m 1560,8039.127 c -87.9157,0 -160.7758,30.3037 -213.0937,99.8906 -42.2159,55.8009 -54.7882,180.3221 -38.2071,245.9336 14.6443,60.2792 84.0257,136.1858 140.2246,161.1269 69.2244,31.5925 198.0982,24.3306 260.1328,-21.2832 a 87.87401,87.87401 0 0 0 1.1153,-0.832 c 72.3437,-54.9813 99.8478,-108.5847 105.4883,-201.9707 4.753,-65.0213 -4.0496,-107.1596 -29.4317,-153.916 a 87.87401,87.87401 0 0 0 -0.8515,-1.5313 C 1734.9576,8077.929 1661.9415,8039.127 1560,8039.127 Z m 255.6602,282.8652 c -0.013,0.1736 -0.013,0.326 -0.025,0.5 l 0.088,-1.332 c -0.017,0.2847 -0.045,0.548 -0.062,0.832 z m -366.7364,224.0859 c -0.3135,-0.143 -0.6714,-0.2557 -0.9824,-0.4004 l 2.1797,0.9786 c -0.3937,-0.1703 -0.8022,-0.4028 -1.1973,-0.5782 z m -140.2246,-161.1269 c -0.066,-0.2712 -0.1726,-0.5537 -0.2363,-0.8242 l 0.5078,2.0546 c -0.1014,-0.3887 -0.1722,-0.8375 -0.2715,-1.2304 z m 38.2071,-245.9336 c 0.03,-0.039 0.056,-0.088 0.086,-0.127 l -0.291,0.3848 c 0.067,-0.089 0.1382,-0.1689 0.2051,-0.2578 z"
             id="path54"
             style="fill:#ffffff;stroke:none;stroke-width:141.732;stroke-linejoin:round;stroke-dasharray:none;stroke-opacity:1;paint-order:stroke fill markers" /><path
             d="m 3022.123,8036.4727 c -20.0638,0.419 -40.3003,3.1712 -60.5664,8.3183 -84.8647,20.6561 -131.9996,52.0075 -170.4726,130.5567 a 87.87401,87.87401 0 0 0 -0.3438,0.7089 c -62.9926,131.5847 -14.3388,311.7002 118.8379,370.3614 a 87.87401,87.87401 0 0 0 0.3496,0.1543 c 124.9154,54.3749 281.234,6.3504 344.8555,-114.6856 a 87.87401,87.87401 0 0 0 0.1348,-0.2578 c 95.5824,-183.3088 -34.4122,-399.2992 -232.795,-395.1562 z m -60.5664,8.3183 c 0.2665,-0.065 0.5122,-0.1365 0.7793,-0.2012 l -1.0507,0.2618 c 0.091,-0.023 0.1809,-0.038 0.2714,-0.061 z"
             id="path55"
             style="fill:#ffffff;stroke:none;stroke-width:141.732;stroke-linejoin:round;stroke-dasharray:none;stroke-opacity:1;paint-order:stroke fill markers" /><path
             d="M 3490,8042.127 A 87.87401,87.87401 0 0 0 3402.127,8130 v 168 c 0,93.1622 -5.0827,200.3177 32.7363,238.1367 35.0682,35.0682 91.3889,30.6049 113.2578,24.6406 5.7829,-1.5771 9.8789,-2.9043 9.8789,-2.9043 11.0905,0 21.2001,-1.7156 30.4766,-4.6035 49.1022,21.8406 111.1288,21.0607 155.1132,-6.7988 63.7786,-39.3988 49.7941,-108.595 38.336,-145.5156 a 87.87401,87.87401 0 0 0 -0.094,-0.3028 c -19.0402,-60.5824 -51.7192,-95.7703 -111.0527,-94.5957 -0.014,-10.8566 -0.1863,-28.4837 -0.9238,-63.8867 a 87.87401,87.87401 0 0 0 -0.035,-1.2519 l -4,-114 A 87.87401,87.87401 0 0 0 3578,8042.127 h -44 z m 253.5898,504.3437 c -0.4692,0.2899 -0.9011,0.5942 -1.3789,0.8809 l 2.7911,-1.7481 c -0.4624,0.3016 -0.9457,0.5717 -1.4122,0.8672 z m -104.2773,-236.8848 c -0.7214,0.1421 -1.3893,0.2127 -2.1172,0.3633 l 1.9277,-0.3594 z"
             id="path56"
             style="fill:#ffffff;stroke:none;stroke-width:141.732;stroke-linejoin:round;stroke-dasharray:none;stroke-opacity:1;paint-order:stroke fill markers" /><path
             d="M 3760,8042.127 A 87.87401,87.87401 0 0 0 3672.127,8130 v 176 175 a 87.87401,87.87401 0 0 0 94.789,87.6016 l 38,-3 a 87.87401,87.87401 0 0 0 0.1856,-0.016 l 37,-3 a 87.87401,87.87401 0 0 0 80.7597,-86.0527 l 3,-172 a 87.87401,87.87401 0 0 0 0.01,-0.5176 l 2,-173 A 87.87401,87.87401 0 0 0 3840,8042.127 h -40 z"
             id="path57"
             style="fill:#ffffff;stroke:none;stroke-width:141.732;stroke-linejoin:round;stroke-dasharray:none;stroke-opacity:1;paint-order:stroke fill markers" /><path
             d="M 3910,8042.127 A 87.87401,87.87401 0 0 0 3822.127,8130 v 33 a 87.87401,87.87401 0 0 0 0.068,3.5117 c 1.9111,47.7767 28.7929,92.2492 80.0469,158.8184 A 87.87401,87.87401 0 0 0 3832.127,8411 v 33 32 a 87.87401,87.87401 0 0 0 86.58,87.8652 l 68,1 -1.082,-0.023 c 39.724,1.0736 106.207,-1.0498 148.2246,-4.1719 76.0854,-4.6485 154.0234,-17.4578 154.0234,-114.6699 0,-42.7173 -46.2512,-108.4553 -92.8847,-168.127 H 4210 A 87.87401,87.87401 0 0 0 4297.873,8190 v -30 -30 A 87.87401,87.87401 0 0 0 4210,8042.127 h -150 z m 223.8496,518.5429 c -0.1782,0.011 -0.3551,0.032 -0.5332,0.043 l 1.2559,-0.086 c -0.2145,0.016 -0.507,0.027 -0.7227,0.043 z"
             id="path58"
             style="fill:#ffffff;stroke:none;stroke-width:141.732;stroke-linejoin:round;stroke-dasharray:none;stroke-opacity:1;paint-order:stroke fill markers" /><path
             d="M 250,7412.127 A 87.87401,87.87401 0 0 0 162.12695,7500 v 256 255 a 87.87401,87.87401 0 0 0 89.58399,87.8574 l 154,-3 a 87.87401,87.87401 0 0 0 0.0586,0 c 151.07255,-3.0418 188.05724,-5.2408 238.61133,-50.1778 a 87.87401,87.87401 0 0 0 1.36719,-1.2422 c 84.24717,-78.1201 103.5725,-194.2395 53.32422,-297.7597 C 650.24325,7645.7274 574.46905,7621.104 447.74219,7614.2539 a 87.87401,87.87401 0 0 0 -0.0254,0 l -9.84375,-0.5293 V 7599 7500 A 87.87401,87.87401 0 0 0 350,7412.127 h -50 z m 449.07227,334.5488 c 0.0142,0.029 0.0307,0.055 0.0449,0.084 l -0.0742,-0.1524 c 0.0109,0.023 0.0184,0.046 0.0293,0.068 z"
             id="path59"
             style="fill:#ffffff;stroke:none;stroke-width:141.732;stroke-linejoin:round;stroke-dasharray:none;stroke-opacity:1;paint-order:stroke fill markers" /><path
             d="M 730,7412.127 A 87.87401,87.87401 0 0 0 642.12695,7500 v 190 190 A 87.87401,87.87401 0 0 0 730,7967.873 h 40 c 21.01152,0 47.11264,-2.8585 70.26758,-13.0644 49.9036,18.0318 111.87486,18.1643 155.37304,-9.9844 64.41578,-41.3558 50.10358,-105.9624 38.95118,-145.6152 a 87.87401,87.87401 0 0 0 -0.4238,-1.459 c -18.1955,-60.6515 -48.73021,-101.0316 -120.30277,-99.7441 -2.03973,-16.6705 -3.64763,-42.1134 -5.0332,-82.752 L 905.8457,7497.7676 A 87.87401,87.87401 0 0 0 818,7412.127 h -44 z m 265.64062,532.6972 c -0.15953,0.1024 -0.30238,0.2104 -0.46289,0.3125 l 0.82422,-0.5332 c -0.11818,0.077 -0.24286,0.1441 -0.36133,0.2207 z"
             id="path60"
             style="fill:#ffffff;stroke:none;stroke-width:141.732;stroke-linejoin:round;stroke-dasharray:none;stroke-opacity:1;paint-order:stroke fill markers" /><path
             d="m 2839.5488,7408.4082 c -32.6848,-0.2643 -70.796,5.6298 -103.4765,22.8301 a 87.87401,87.87401 0 0 0 -0.9961,0.5332 c -69.8404,37.9133 -112.5862,130.8393 -97.3242,209.0566 a 87.87401,87.87401 0 0 0 0.08,0.4063 c 7.2176,36.0877 20.7707,63.7341 40.168,85.6836 -15.0109,15.0687 -25.873,35.922 -25.873,65.082 0,62.1063 52.4981,117.0453 93.8554,143.2383 a 87.87401,87.87401 0 0 0 0.1973,0.123 c 46.6497,29.3721 92.102,32.5718 163.4043,30.4746 a 87.87401,87.87401 0 0 0 0.7422,-0.025 c 205.3171,-7.7771 223.0213,-83.0846 229.5215,-350.6757 v 0.1972 l 3,-113 A 87.87401,87.87401 0 0 0 3055,7412.127 h -42 c -23.22,0 -52.1189,3.097 -76.8789,14.9765 -31.4853,-12.7448 -65.6025,-18.4449 -96.5723,-18.6953 z"
             id="path61"
             style="fill:#ffffff;stroke:none;stroke-width:141.732;stroke-linejoin:round;stroke-dasharray:none;stroke-opacity:1;paint-order:stroke fill markers" /><path
             d="m 3316.0645,7262.7637 c -44.3746,-0.7275 -96.8253,5.188 -137.545,21.6133 -64.2059,25.2871 -126.3925,98.1544 -126.3925,173.623 0,35.053 12.6422,58.3408 32.4003,72.9883 -3.6277,5.933 -7.1295,12.0095 -10.4062,18.3262 -27.09,51.5692 -33.2741,94.3417 -28.834,162.8554 5.1587,99.4651 33.5809,169.6868 111.9688,221.9453 61.9241,41.2828 147.3467,43.344 215.5625,15.4102 22.1468,10.7943 47.424,14.9054 70.1679,16.2051 l -1.248,-0.08 42,3 A 87.87401,87.87401 0 0 0 3577.873,7881 v -205 c 0,-250.26 -7.2736,-333.2543 -125.5097,-386.998 a 87.87401,87.87401 0 0 0 -0.2383,-0.1075 c -39.5631,-17.8421 -91.4486,-25.3995 -136.0605,-26.1308 z m -270.7774,449.4062 c -0.013,-0.2463 -0.036,-0.4798 -0.049,-0.7265 l 0.076,1.3066 c -0.013,-0.2024 -0.014,-0.3781 -0.027,-0.5801 z m 28.834,-162.8554 c 0.043,-0.082 0.074,-0.1601 0.1172,-0.2422 l -0.2891,0.5566 c 0.055,-0.1069 0.1165,-0.2077 0.1719,-0.3144 z m 104.3984,-264.9375 c 0.2109,-0.083 0.4199,-0.1934 0.6309,-0.2754 l -1.3047,0.5195 c 0.2172,-0.089 0.456,-0.1563 0.6738,-0.2441 z"
             id="path62"
             style="fill:#ffffff;stroke:none;stroke-width:141.732;stroke-linejoin:round;stroke-dasharray:none;stroke-opacity:1;paint-order:stroke fill markers" /><path
             d="m 3690.2344,7405.6582 c -150.069,-2.6361 -247.5139,134.0745 -192.4473,279.3535 5.3656,14.2671 12.0788,26.5995 20.1113,37.4727 -14.9393,14.0482 -25.7714,34.382 -25.7714,64.5156 0,61.7154 70.0196,138.3889 115.4257,158.4043 63.0226,27.8051 209.3212,30.0184 271.7461,-2.3633 23.9066,-12.2506 61.0564,-42.2572 75.2989,-70.7422 a 87.87401,87.87401 0 0 0 2.9921,-6.664 c 14.0346,-35.0863 17.1855,-109.4096 20.2168,-187.2129 2.8748,-73.7861 6.4942,-124.7324 6.4942,-124.7324 a 87.87401,87.87401 0 0 0 0.2051,-0.4688 C 4036.5099,7434.3544 3924.6827,7412.127 3867,7412.127 c -25.4616,0 -54.6087,2.6841 -80.0176,14.8945 -13.1398,-5.6377 -25.9852,-9.8326 -36.8613,-12.7988 a 87.87401,87.87401 0 0 0 -0.6797,-0.1817 c -19.7477,-5.2164 -39.5878,-8.0382 -59.207,-8.3828 z m 189.0644,537.3828 c -0.3175,0.1627 -0.6872,0.4003 -1,0.5567 l 1.7168,-0.8829 c -0.2207,0.1166 -0.4939,0.2106 -0.7168,0.3262 z m -271.7461,2.3633 c -0.021,-0.01 -0.047,-0.018 -0.068,-0.027 l 0.125,0.055 c -0.018,-0.01 -0.038,-0.019 -0.057,-0.027 z m -109.7656,-260.3926 c -0.02,-0.054 -0.046,-0.1018 -0.066,-0.1562 l 0.1367,0.3593 c -0.026,-0.068 -0.045,-0.1353 -0.07,-0.2031 z m 234.2402,-193.6758 c -0.2817,0.8456 -0.6305,1.5898 -0.9003,2.4532 l 0.5078,-1.5782 c -0.1156,0.3468 0.2109,-0.498 0.2109,-0.498 z"
             id="path63"
             style="fill:#ffffff;stroke:none;stroke-width:141.732;stroke-linejoin:round;stroke-dasharray:none;stroke-opacity:1;paint-order:stroke fill markers" /><path
             d="m 2093.957,7374.6621 c -33.4565,1.624 -79.1786,16.768 -97.9023,65.918 -38.476,96.9882 45.1632,160.3439 126.0918,200.2383 a 87.87401,87.87401 0 0 0 0.4121,0.2012 l 43.0469,20.9414 31.5097,80.9238 a 87.87401,87.87401 0 0 0 0.1797,0.457 c 10.8901,27.5119 23.4653,56.8283 36.7051,86.7031 -34.1577,-37.0529 -68.1434,-74.6887 -102.1094,-113.1836 a 87.87401,87.87401 0 0 0 -0.3027,-0.3437 C 2024.0979,7595.968 1994.6833,7562.127 1918,7562.127 c -9.3061,0 -18.7147,0.6832 -28.1523,2.3535 -32.1236,-48.0958 -103.6239,-60.5373 -183.8438,-70.6621 l 1.0039,0.1308 c -111.0289,-15.3143 -190.3507,-34.8901 -267.0762,-67.0078 a 87.87401,87.87401 0 0 0 -0.5781,-0.2402 c -71.3238,-29.2611 -176.9035,-84.242 -235.414,28.9453 -55.8344,108.0102 77.2985,175.5185 88.9335,184.3496 23.8693,18.117 43.4015,21.463 65.6778,33.0137 a 87.87401,87.87401 0 0 0 1.9629,0.9883 c 21.9404,10.6889 17.5625,7.4336 23.0566,21.0019 51.8857,128.9873 217.06,385.2975 411.1641,643.7676 a 87.87401,87.87401 0 0 0 0.2441,0.3262 c 5.0485,6.6581 9.0637,12.2004 13.9434,18.6894 -46.3463,7.8273 -84.7178,34.3293 -93.7129,95.9492 -12.4356,76.5523 42.0091,111.9335 81.4199,132.3184 a 87.87401,87.87401 0 0 0 0.3633,0.1875 c 97.0157,49.6103 330.1054,98.8436 408.9316,49.0586 a 87.87401,87.87401 0 0 0 0.9668,-0.6191 c 79.7579,-51.8426 53.1493,-149.0119 17.2969,-268.8614 a 87.87401,87.87401 0 0 0 -0.035,-0.1172 c -18.1601,-60.4023 -39.901,-149.0201 -60.0625,-235.6992 106.0592,110.6527 239.0532,241.7196 328.3575,321.5235 l -0.2325,-0.2071 47.6016,42.8399 c -1.8421,3.9755 -3.5225,8.0395 -4.791,12.2773 -40.9778,136.8983 146.6399,180.5787 334.5527,214.0762 a 87.87401,87.87401 0 0 0 0.016,0 c 120.548,21.4674 237.5261,29.5727 287.2715,-43.0742 20.4172,-29.8167 22.7441,-61.2038 17.4082,-88.7754 -16.2745,-88.7516 -102.7611,-102.6248 -187.5293,-111.1016 l 0.959,0.1016 c -23.6903,-2.6323 -39.1596,-9.0212 -39.8418,-9.3047 -59.5379,-49.1188 -333.6776,-548.5371 -415.9277,-732.9023 86.5735,2.4547 175.9394,-16.1159 175.9394,-119.4571 a 87.87401,87.87401 0 0 0 -0.051,-3.0293 c -3.5612,-103.2735 -94.5211,-121.2306 -219.625,-139.8476 -74.4417,-11.3076 -157.4396,-31.9689 -212.3848,-51.7852 a 87.87401,87.87401 0 0 0 -0.6016,-0.2148 c -76.9731,-27.1299 -131.044,-44.1106 -167.6894,-46.3907 -4.1871,-0.2605 -8.748,-0.3041 -13.5645,-0.07 z m 1080.3164,1214.002 c 0.082,0.446 0.2226,0.8295 0.3008,1.2793 l -0.4062,-2.1778 c 0.058,0.2903 0.049,0.6074 0.1054,0.8985 z M 1715.209,8453.7324 c 0.1112,-0.6843 0.132,-1.3129 0.2539,-2.0039 l -0.5137,3.2637 c 0.062,-0.4494 0.1947,-0.814 0.2598,-1.2598 z M 1383.5703,7695 c -0.029,-0.073 -0.082,-0.1713 -0.1113,-0.2441 l 0.2851,0.7031 c -0.086,-0.2086 -0.092,-0.2579 -0.1738,-0.459 z m 612.4844,-254.4199 c 0.293,-0.7386 0.4408,-1.4371 0.748,-2.1797 l -1.2578,3.2207 c 0.1415,-0.3841 0.365,-0.661 0.5098,-1.041 z m -209.586,310.6191 c 1.7484,45.1265 9.2109,99.7893 20.461,165.1719 -2.0239,-3.073 -4.2863,-6.2626 -6.2832,-9.3125 -33.3671,-51.4666 -65.5648,-106.6463 -91.2774,-154.4355 26.5459,1.5479 52.7454,1.4578 77.0996,-1.4239 z"
             id="path64"
             style="fill:#ffffff;fill-opacity:1;stroke:none;stroke-width:141.732;stroke-linejoin:round;stroke-dasharray:none;stroke-opacity:1;paint-order:stroke fill markers"
             transform="translate(8.4589738e-7,-1.973478e-5)" /><path
             d="m 1169.8359,7386.3965 c -87.9156,0 -160.7757,30.3037 -213.09371,99.8906 -42.21589,55.8009 -54.78817,180.3221 -38.20703,245.9336 14.64423,60.2793 84.02564,136.1859 140.22464,161.127 69.2244,31.5925 198.0981,24.3305 260.1328,-21.2832 a 87.87401,87.87401 0 0 0 1.1152,-0.8321 c 9.3552,-7.1099 18.4215,-14.5484 27.0195,-22.4589 54.5162,-50.1581 73.9965,-105.8147 78.4629,-179.4122 4.77,-65.0803 -4.0302,-107.2343 -29.4257,-154.0156 a 87.87401,87.87401 0 0 0 -0.8516,-1.5312 c -50.4194,-88.6159 -123.4355,-127.418 -225.377,-127.418 z m 255.6543,282.9648 c -0.01,0.1391 -0.01,0.2611 -0.019,0.4004 l 0.088,-1.332 c -0.019,0.3153 -0.049,0.617 -0.068,0.9316 z m -366.7304,223.9864 c -0.3135,-0.1431 -0.6714,-0.2557 -0.9825,-0.4004 l 2.1797,0.9785 c -0.3937,-0.1703 -0.8022,-0.4028 -1.1972,-0.5781 z m -140.22464,-161.127 c -0.0659,-0.2712 -0.17267,-0.5536 -0.23633,-0.8242 l 0.50781,2.0547 c -0.1014,-0.3887 -0.17218,-0.8375 -0.27148,-1.2305 z m 38.20703,-245.9336 c 0.0299,-0.039 0.056,-0.087 0.0859,-0.1269 l -0.29101,0.3847 c 0.0668,-0.089 0.13824,-0.1689 0.20508,-0.2578 z"
             id="path65"
             style="fill:#ffffff;stroke:none;stroke-width:141.732;stroke-linejoin:round;stroke-dasharray:none;stroke-opacity:1;paint-order:stroke fill markers"
             transform="translate(8.4589738e-7,-1.973478e-5)" /></g><path
           d="m 437,8603 c -10,-16 -177,-455 -177,-464 0,-5 20,-9 44,-9 43,0 44,0 62,53 l 19,52 h 100 100 l 19,-52 19,-53 h 48 49 l -19,48 c -11,26 -51,128 -90,226 -39,99 -76,185 -82,193 -12,14 -85,18 -92,6 z m 81,-195 c 17,-44 29,-85 26,-90 -6,-10 -124,-11 -124,0 -1,15 55,172 61,172 3,0 20,-37 37,-82 z"
           id="path2"
           style="fill:#295892;fill-opacity:1;stroke:none;stroke-width:141.732;stroke-linejoin:round;stroke-dasharray:none;stroke-opacity:1;paint-order:stroke fill markers" /><path
           d="m 3773,8603 c -7,-2 -13,-20 -13,-39 0,-33 1,-34 40,-34 39,0 40,1 40,34 0,26 -5,35 -22,40 -26,6 -28,6 -45,-1 z"
           id="path3"
           style="fill:#295892;fill-opacity:1;stroke:none;stroke-width:141.732;stroke-linejoin:round;stroke-dasharray:none;stroke-opacity:1;paint-order:stroke fill markers" /><path
           d="m 1228,8568 c -32,-18 -38,-27 -38,-55 0,-26 -4,-33 -20,-33 -16,0 -20,-7 -20,-35 0,-28 4,-35 20,-35 19,0 20,-7 20,-118 0,-131 9,-156 60,-167 17,-4 44,-4 60,0 25,5 30,11 30,36 0,26 -3,29 -24,23 -36,-9 -46,20 -46,130 v 95 l 33,3 c 25,2 33,8 35,27 4,26 -12,41 -45,41 -20,0 -22,6 -25,55 l -3,54 z"
           id="path4"
           style="fill:#295892;fill-opacity:1;stroke:none;stroke-width:141.732;stroke-linejoin:round;stroke-dasharray:none;stroke-opacity:1;paint-order:stroke fill markers" /><path
           d="m 3318,8567 c -31,-18 -38,-28 -38,-54 0,-26 -4,-33 -20,-33 -16,0 -20,-7 -20,-35 0,-28 4,-35 20,-35 19,0 20,-7 20,-99 0,-140 5,-160 48,-178 22,-9 48,-12 69,-8 29,5 33,10 33,37 0,23 -4,29 -15,24 -39,-14 -45,2 -45,115 v 109 h 31 c 28,0 30,2 27,33 -2,27 -8,33 -30,35 -26,3 -28,6 -28,52 0,27 -3,51 -7,53 -5,3 -25,-5 -45,-16 z"
           id="path5"
           style="fill:#295892;fill-opacity:1;stroke:none;stroke-width:141.732;stroke-linejoin:round;stroke-dasharray:none;stroke-opacity:1;paint-order:stroke fill markers" /><path
           d="m 791,8472 c -15,-5 -15,-263 0,-296 12,-26 59.28558,-51.0506 96,-56 27.12692,-3.6569 52.35535,7.1167 79.35535,21.1167 27,14 39.64465,28.8833 41.64465,28.8833 1,0 2,-9 2,-20 0,-16 7,-20 35,-20 h 35 v 170 170 h -40 -40 v -104 c 0,-121 -11,-160 -49,-176 -36,-14 -79,1 -86,32 -3,13 -6,74 -8,137 l -2,114 -27,1 c -14,1 -31,0 -37,-2 z"
           id="path6"
           style="fill:#295892;fill-opacity:1;stroke:none;stroke-width:141.732;stroke-linejoin:round;stroke-dasharray:none;stroke-opacity:1;paint-order:stroke fill markers" /><path
           d="m 1485,8466 c -37,-16 -83,-68 -91,-102 -12,-46 1,-143 23,-172 33,-44 79,-65 143,-65 71,0 116,25 149,83 19,35 23,52 19,106 -4,68 -21,100 -71,138 -34,25 -129,32 -172,12 z m 122,-61 c 47,-33 54,-148 13,-193 -81,-86 -186,32 -136,152 23,54 78,73 123,41 z"
           id="path7"
           style="fill:#295892;fill-opacity:1;stroke:none;stroke-width:141.732;stroke-linejoin:round;stroke-dasharray:none;stroke-opacity:1;paint-order:stroke fill markers" /><path
           d="m 2945,8466 c -84,-37 -120,-158 -75,-252 24,-49 51,-69 113,-84 149,-38 267,121 194,261 -41,78 -147,112 -232,75 z m 139,-77 c 47,-56 29,-177 -30,-199 -64,-25 -114,23 -114,107 0,83 28,122 87,123 23,0 38,-8 57,-31 z"
           id="path8"
           style="fill:#295892;fill-opacity:1;stroke:none;stroke-width:141.732;stroke-linejoin:round;stroke-dasharray:none;stroke-opacity:1;paint-order:stroke fill markers" /><path
           d="m 3497,8474 c -4,-4 -7,-83 -7,-176 v -168 h 44 44 l 4,114 c 2,96 6,117 23,136 15,16 26,20 50,16 29,-6 32,-4 43,31 9,29 9,39 -1,45 -23,15 -74,8 -92,-12 -22,-24 -35,-26 -35,-5 0,8 -6,15 -12,15 -7,0 -22,3 -33,6 -11,3 -24,2 -28,-2 z"
           id="path9"
           style="fill:#295892;fill-opacity:1;stroke:none;stroke-width:141.732;stroke-linejoin:round;stroke-dasharray:none;stroke-opacity:1;paint-order:stroke fill markers" /><path
           d="m 3760,8306 v -176 h 40 40 l -2,173 -3,172 -37,3 -38,3 z"
           id="path10"
           style="fill:#295892;fill-opacity:1;stroke:none;stroke-width:141.732;stroke-linejoin:round;stroke-dasharray:none;stroke-opacity:1;paint-order:stroke fill markers" /><path
           d="m 3920,8444 v -33 l 79,-3 79,-3 -84,-105 c -65,-82 -83,-112 -84,-137 v -33 h 150 150 v 30 30 h -95 c -52,0 -95,2 -95,4 0,3 41,56 90,118 51,64 90,122 90,134 0,20 -6,23 -72,27 -40,3 -103,5 -140,4 l -68,-1 z"
           id="path11"
           style="fill:#295892;fill-opacity:1;stroke:none;stroke-width:141.732;stroke-linejoin:round;stroke-dasharray:none;stroke-opacity:1;paint-order:stroke fill markers" /><path
           d="m 250,7756 v -256 h 50 50 v 99 98 l 93,5 c 111,6 148,23 177,83 34,70 21,144 -34,195 -27,24 -33,25 -182,28 l -154,3 z m 265,149 c 54,-53 22,-108 -69,-119 -90,-12 -96,-7 -96,75 v 69 h 70 c 62,0 74,-3 95,-25 z"
           id="path12"
           style="fill:#295892;fill-opacity:1;stroke:none;stroke-width:141.732;stroke-linejoin:round;stroke-dasharray:none;stroke-opacity:1;paint-order:stroke fill markers" /><path
           d="m 730,7690 v -190 h 44 44 l 3,118 c 5,147 19,177 79,169 37,-5 38,-4 50,36 9,32 9,41 -2,48 -23,15 -75,10 -101,-11 -14,-11 -28,-20 -31,-20 -3,0 -6,9 -6,20 0,17 -7,20 -40,20 h -40 z"
           id="path13"
           style="fill:#295892;fill-opacity:1;stroke:none;stroke-width:141.732;stroke-linejoin:round;stroke-dasharray:none;stroke-opacity:1;paint-order:stroke fill markers" /><path
           d="m 2793,7861 c -30,-19 -53,-49 -53,-69 0,-5 16,-13 35,-16 30,-6 39,-3 54,15 23,29 98,31 118,3 26,-36 12,-48 -82,-72 -99,-25 -131,-48 -141,-98 -8,-41 18,-96 53,-115 38,-20 105,-16 145,9 43,27 48,27 48,2 0,-17 7,-20 43,-20 h 42 l -3,113 c -6,247 -13,260 -145,265 -68,2 -87,0 -114,-17 z m 159,-239 c -14,-45 -54,-69 -97,-58 -29,7 -47,43 -34,67 10,19 119,50 133,38 6,-5 5,-24 -2,-47 z"
           id="path14"
           style="fill:#295892;fill-opacity:1;stroke:none;stroke-width:141.732;stroke-linejoin:round;stroke-dasharray:none;stroke-opacity:1;paint-order:stroke fill markers" /><path
           d="m 3206,7861 c -48,-32 -69,-75 -73,-154 -4,-61 -1,-79 19,-117 45,-87 130,-114 202,-65 20,14 40,25 43,25 10,0 -4,-99 -17,-115 -18,-22 -98,-20 -124,4 -23,20 -116,35 -116,19 0,-33 35,-78 71,-92 54,-22 154,-20 205,3 66,30 74,62 74,307 v 205 l -42,-3 c -35,-2 -44,-7 -46,-25 l -3,-22 -36,25 c -45,30 -115,33 -157,5 z m 162,-74 c 43,-45 37,-169 -11,-202 -29,-20 -70,-19 -97,3 -43,35 -45,157 -4,203 25,27 84,26 112,-4 z"
           id="path15"
           style="fill:#295892;fill-opacity:1;stroke:none;stroke-width:141.732;stroke-linejoin:round;stroke-dasharray:none;stroke-opacity:1;paint-order:stroke fill markers" /><path
           d="m 3643,7865 c -25,-11 -63,-58 -63,-78 0,-2 17,-7 37,-10 29,-5 42,-2 59,14 42,40 129,21 122,-25 -2,-17 -18,-25 -84,-42 -99,-26 -122,-38 -134,-70 -38,-100 41,-183 147,-155 22,6 46,18 53,26 17,20 27,19 35,-5 5,-16 15,-20 52,-20 39,0 44,2 37,18 -4,9 -11,80 -14,157 -3,77 -10,148 -14,158 -5,10 -21,24 -37,32 -36,19 -153,19 -196,0 z m 157,-228 c 0,-58 -67,-94 -115,-63 -45,30 -27,71 38,86 67,16 77,13 77,-23 z"
           id="path16"
           style="fill:#295892;fill-opacity:1;stroke:none;stroke-width:141.732;stroke-linejoin:round;stroke-dasharray:none;stroke-opacity:1;paint-order:stroke fill markers" /><path
           d="m 2885,8634 c -230,-41 -316,-87 -239,-127 l 25,-13 -120,-108 c -141,-126 -397,-387 -466,-474 -44,-57 -65,-74 -65,-54 0,50 74,380 120,533 35,117 39,157 19,170 -38,24 -234,-8 -322,-53 -29,-15 -38,-24 -35,-41 4,-29 40,-33 109,-13 60,18 79,20 79,7 0,-5 -56,-84 -125,-175 -193,-257 -353,-507 -400,-624 -14,-34 -27,-48 -66,-67 -27,-14 -37.4408,-13.1904 -53,-25 -25.977,-19.7168 -78.9758,-45.0297 -64,-74 19.0693,-36.8891 46,-20 124,12 86,36 173,57 289,73 103,13 125,22 125,50 0,34 -37,42 -141,31 -54,-6 -98,-7 -103,-2 -12,12 68,167 151,295 91,139 212,305 224,305 11,0 15,24 -26,-189 -66,-344 -67,-421 -7,-421 36,0 41,5 148,125 135,153 270,293 416,433 140,134 140,134 27,-43 -80,-127 -173,-310 -230,-454 l -44,-113 -74,-36 c -71,-35 -95,-61 -83,-90 7,-19 46,-11 168,32 61,22 150,44 229,56 121,18 144,27 145,56 0,29 -30,37 -115,30 l -85,-6 v 30 c 0,90 387,799 474,868 17,13 48,23 84,27 80,8 106,17 110,40 9,45 -57,55 -203,29 z"
           id="path1"
           style="fill:#fb0000;fill-opacity:1;stroke:none;stroke-width:141.732;stroke-linejoin:round;stroke-dasharray:none;stroke-opacity:1;paint-order:stroke fill markers"
           transform="translate(8.4589738e-7,-1.973478e-5)" /><path
           d="m 1094.835,7813.2686 c -37,-16 -83,-68 -91,-102 -12.00003,-46 1,-143 23,-172 33,-44 79,-65 143,-65 71,0 116,25 149,83 19,35 23,52 19,106 -3.3883,57.6012 -16.1046,89.371 -50.3051,120.8375 -6.1743,5.6806 -13.0487,11.3514 -20.6949,17.1625 -34,25 -129,32 -172,12 z m 122,-61 c 47,-33 54,-148 13,-193 -81,-86 -186,32 -136,152 23,54 78,73 123,41 z"
           id="path7-2"
           style="fill:#295892;fill-opacity:1;stroke:none;stroke-width:141.732;stroke-linejoin:round;stroke-dasharray:none;stroke-opacity:1;paint-order:stroke fill markers"
           transform="translate(8.4589738e-7,-1.973478e-5)" /></g></g></g></svg>
